<svg xmlns="http://www.w3.org/2000/svg" width="500" height="500" viewBox="0 0 500 500">
  <defs>
    <style>
      .cls-1 {
        fill: #9e9e9e;
        fill-rule: evenodd;
      }

      .cls-2 {
        fill: #fff;
      }
    </style>
  </defs>
  <path id="user_copy_4" data-name="user copy 4" class="cls-1" d="M217.005,453.01C114.442,453.01,31,369.623,31,267.128S114.442,81.247,217.005,81.247s186.007,83.387,186.007,185.881S319.568,453.01,217.005,453.01Zm0-357.186c-94.522,0-171.418,76.848-171.418,171.3s76.9,171.3,171.418,171.3,171.419-76.844,171.419-171.3S311.526,95.824,217.005,95.824Zm-93.528,266a7.441,7.441,0,0,1-3.373-.832,7.258,7.258,0,0,1-2.905-9.705c2.916-5.695,11.636-9.734,32.333-18.253,8.986-3.7,23.8-9.809,27.087-12.936,0.917-4.6-.925-11.237-2.043-14.338-2.512-3-8.858-11.337-10.36-20.723-4.4-2.372-10.2-7.435-13.575-18.149-3.657-11.578.226-20.016,4.556-24.77-8.92-43.831,1.638-57.579,6.224-63.553l0.655-.873c8.482-12.154,33.236-37.142,83.341-12.257,11.281,3.136,19.675,9.659,24.957,19.386,10.617,19.57,5.038,46.659,2.226,57.18a22.953,22.953,0,0,1,4.82,21.854A30.182,30.182,0,0,1,265.976,280.6c-1.326,10.227-7.926,22.079-10.188,25.9-0.876,4.4-1.23,9.424-.818,11.484,2.087,1.35,7.668,3.97,12.247,6.123,13.251,6.229,31.4,14.762,42.393,25.313a7.031,7.031,0,1,1-9.757,10.125c-9.33-8.946-26.269-16.91-38.638-22.727-11.6-5.46-15.728-7.511-17.888-10.666-4.361-6.393-2.186-18.775-1.052-23.8l0.258-1.145,0.619-1c3.633-5.893,9.281-17.443,8.971-23.4l-0.263-5.062,4.736-1.844c0.076-.041,5.121-2.346,7.287-9.907a9.386,9.386,0,0,0-3.285-10.089l-4.291-3,1.647-4.972c0.106-.308,10.284-31.588.023-50.453-3.515-6.466-9.036-10.6-16.871-12.661l-1.384-.523c-29.07-14.631-52.5-12.092-65.939,7.2-0.461.65-.8,1.1-1.183,1.6-3.23,4.206-11.807,15.378-2.784,56.069l1.1,4.959-4.375,2.594c-0.749.5-5.029,3.834-2.471,11.949,2.924,9.261,7.9,10.488,8.108,10.536l5.848,1.324-0.035,6.043c-0.367,5.687,5.187,13.773,7.937,16.8l0.814,0.9,0.468,1.127c0.6,1.448,5.816,14.466,2.792,25.228-2,7.129-11.723,11.757-35.1,21.389-9.2,3.785-23.1,9.514-25.492,12.167A6.574,6.574,0,0,1,123.477,361.826Z"/>
  <circle class="cls-2" cx="382" cy="195" r="101"/>
  <path class="cls-1" d="M331,132v49l110,15L331,211v48l152-64Z"/>
</svg>
