<svg xmlns="http://www.w3.org/2000/svg" width="500" height="500" viewBox="0 0 500 500">
  <defs>
    <style>
      .cls-1 {
        fill: #534d93;
        fill-rule: evenodd;
      }
    </style>
  </defs>
  <path id="user_copy" data-name="user copy" class="cls-1" d="M250,477C124.834,477,23,375.168,23,250S124.834,23,250,23,477,124.834,477,250,375.166,477,250,477Zm0-436.2C134.649,40.8,40.8,134.649,40.8,250S134.649,459.2,250,459.2,459.2,365.353,459.2,250,365.352,40.8,250,40.8Zm-114.6,342.44a9.389,9.389,0,0,1-4.265-1.054c-4.375-2.234-5.906-7.917-3.672-12.3,3.685-7.217,14.714-12.336,40.884-23.133,11.363-4.695,30.1-12.431,34.253-16.394,1.16-5.835-1.17-14.242-2.583-18.17-3.177-3.8-11.2-14.37-13.1-26.264-5.564-3-12.893-9.423-17.165-23-4.625-14.675.283-25.367,5.759-31.392-11.28-55.549,2.072-72.973,7.871-80.544l0.827-1.1c10.727-15.4,42.028-47.074,105.389-15.535,14.266,3.974,24.88,12.24,31.557,24.567,13.427,24.8,6.372,59.134,2.816,72.468a29.138,29.138,0,0,1,6.1,27.7c-3.265,11.431-9.764,17.882-14.471,21.22-1.678,12.962-10.023,27.984-12.883,32.827-1.109,5.582-1.557,11.943-1.034,14.553,2.638,1.714,9.7,5.033,15.487,7.762,16.755,7.894,39.707,18.709,53.607,32.08a8.9,8.9,0,0,1-12.34,12.832c-11.8-11.339-33.217-21.431-48.857-28.8-14.674-6.92-19.891-9.52-22.62-13.518-5.517-8.1-2.764-23.794-1.331-30.165l0.327-1.452,0.782-1.261c4.594-7.468,11.737-22.107,11.345-29.654l-0.334-6.415,5.989-2.337c0.1-.052,6.477-2.973,9.216-12.555a11.9,11.9,0,0,0-4.156-12.786l-5.425-3.8,2.082-6.3c0.134-.391,13-40.034.03-63.94-4.446-8.2-11.427-13.439-21.333-16.048l-1.752-.662c-36.759-18.543-66.382-15.325-83.382,9.13-0.583.824-1.007,1.391-1.5,2.024-4.086,5.33-14.931,19.49-3.521,71.06l1.39,6.285-5.532,3.287c-0.948.634-6.359,4.858-3.124,15.143,3.7,11.737,9.987,13.291,10.252,13.352l7.4,1.678-0.044,7.659c-0.465,7.208,6.559,17.456,10.035,21.29l1.032,1.138L216,304.135c0.764,1.834,7.354,18.332,3.529,31.974-2.534,9.033-14.822,14.9-44.379,27.105-11.636,4.8-29.218,12.059-32.235,15.422A8.315,8.315,0,0,1,135.405,383.244Z"/>
</svg>
