<svg xmlns="http://www.w3.org/2000/svg" width="482.969" height="419.938" viewBox="0 0 482.969 419.938">
  <defs>
    <style>
      .cls-1 {
        fill: #534d93;
        fill-rule: evenodd;
      }
    </style>
  </defs>
  <path id="_66" data-name="66" class="cls-1" d="M477.019,71.056H416.65v-15a15.046,15.046,0,0,0-15.093-15H356.279a15.044,15.044,0,0,0-15.091,15v15H160.078v-15a15.044,15.044,0,0,0-15.091-15H99.709a15.046,15.046,0,0,0-15.093,15v15H24.247a15.047,15.047,0,0,0-15.093,15V446.014a15.049,15.049,0,0,0,15.093,15H477.019a15.05,15.05,0,0,0,15.093-15V86.053A15.048,15.048,0,0,0,477.019,71.056Zm-105.647,0h15.093v30H371.372v-30Zm-256.571,0h15.093v30H114.8v-30Zm347.125,359.96H39.34V101.053H84.616v15a15.048,15.048,0,0,0,15.093,15h45.278a15.047,15.047,0,0,0,15.091-15v-15h181.11v15a15.047,15.047,0,0,0,15.091,15h45.278a15.048,15.048,0,0,0,15.093-15v-15h45.276V431.016ZM160.078,191.044H99.709a15.046,15.046,0,0,0-15.093,15v60a15.047,15.047,0,0,0,15.093,15h60.369a15.046,15.046,0,0,0,15.092-15V206.041A15.045,15.045,0,0,0,160.078,191.044Zm-15.091,59.992H114.8v-30h30.186v30Zm135.83-59.992H220.448a15.045,15.045,0,0,0-15.092,15v60a15.046,15.046,0,0,0,15.092,15h60.369a15.046,15.046,0,0,0,15.093-15V206.041A15.045,15.045,0,0,0,280.817,191.044Zm-15.09,59.992H235.539v-30h30.188v30Zm135.83-59.992H341.188a15.043,15.043,0,0,0-15.092,15v60a15.045,15.045,0,0,0,15.092,15h60.369a15.047,15.047,0,0,0,15.093-15V206.041A15.046,15.046,0,0,0,401.557,191.044Zm-15.092,59.992H356.279v-30h30.186v30ZM160.078,311.028H99.709a15.049,15.049,0,0,0-15.093,15v59.994a15.047,15.047,0,0,0,15.093,15h60.369a15.046,15.046,0,0,0,15.092-15V326.028A15.048,15.048,0,0,0,160.078,311.028Zm-15.091,59.994H114.8v-30h30.186v30Zm135.83-59.994H220.448a15.048,15.048,0,0,0-15.092,15v59.994a15.046,15.046,0,0,0,15.092,15h60.369a15.046,15.046,0,0,0,15.093-15V326.028A15.048,15.048,0,0,0,280.817,311.028Zm-15.09,59.994H235.539v-30h30.188v30Zm135.83-59.994H341.188a15.046,15.046,0,0,0-15.092,15v59.994a15.045,15.045,0,0,0,15.092,15h60.369a15.047,15.047,0,0,0,15.093-15V326.028A15.049,15.049,0,0,0,401.557,311.028Zm-15.092,59.994H356.279v-30h30.186v30Z" transform="translate(-9.156 -41.063)"/>
</svg>
