<svg xmlns="http://www.w3.org/2000/svg" width="488.063" height="297.875" viewBox="0 0 488.063 297.875">
  <defs>
    <style>
      .cls-1 {
        fill: #534d93;
        fill-rule: evenodd;
      }
    </style>
  </defs>
  <path id="Rounded_Rectangle_112_copy_2" data-name="Rounded Rectangle 112 copy 2" class="cls-1" d="M26.851,113.14H140.656a20.908,20.908,0,0,1,20.9,20.912v186.23a20.908,20.908,0,0,1-20.9,20.912H26.851a20.909,20.909,0,0,1-20.9-20.912V134.052A20.909,20.909,0,0,1,26.851,113.14Zm166.213,69.812h113.8a20.91,20.91,0,0,1,20.906,20.912V390.1a20.909,20.909,0,0,1-20.906,20.912h-113.8A20.909,20.909,0,0,1,172.158,390.1V203.864A20.91,20.91,0,0,1,193.064,182.952ZM359.276,113.14H473.081a20.909,20.909,0,0,1,20.9,20.912v186.23a20.909,20.909,0,0,1-20.9,20.912h-113.8a20.908,20.908,0,0,1-20.9-20.912V134.052A20.908,20.908,0,0,1,359.276,113.14Z" transform="translate(-5.938 -113.125)"/>
</svg>
