<svg xmlns="http://www.w3.org/2000/svg" width="500" height="500" viewBox="0 0 500 500">
  <defs>
    <style>
      .cls-1 {
        fill: #423c80;
        fill-rule: evenodd;
      }
    </style>
  </defs>
  <path id="guitar-335" class="cls-1" d="M106.648,408.991c-33.142,0-59.671-22.456-81.1-68.639-37.542-80.937-.115-118.966,37.89-136.617a73.864,73.864,0,0,1,31.3-7.038c15.26,0,28.32,4.639,38.813,8.367,6.443,2.283,12,4.261,15.659,4.261a5.005,5.005,0,0,0,1.962-.317c8.572-3.76,17.441-14.922,23.919-23.077a95.236,95.236,0,0,1,8.289-9.648c8.538-7.952,18.236-9.351,29.009-4.06,11.393,5.6,16.38,14.845,14.045,26.025-1.051,5.04-4.633,9.22-7.794,12.9-1.528,1.78-3.993,4.652-4.494,6.095,1.416,1.218,5.878,2.693,10.143,3.369l133.533-61.564L381.951,138.5,460.387,125l22.6,12.771-12.053,30.936-17.949-3.414L399.775,190l-23.145-3.581L239.955,256.078c-2.754,2.117-6.017,6.042-5.191,7.822,1.349,2.911,5.14,4.181,11.72,6.165,2.89,0.874,6.165,1.858,9.466,3.217l0.727,0.293c4.976,2.012,16.622,6.713,15.162,22.851-1.4,15.452-13.966,22.413-21.56,23.173-1.068.1-3.231,0.183-6.113,0.281-9.176.305-30.671,1.013-38.938,4.855-2.007,1.123-5.587,9.363-8.206,15.386-7.776,17.888-19.53,44.932-48.24,58.264C133.408,405.52,119.628,408.991,106.648,408.991ZM94.74,209.765a60.077,60.077,0,0,0-25.8,5.827C21.52,237.614,10.911,277.735,37.4,334.851c19.063,41.092,41.712,61.071,69.244,61.071,11.042,0,23.024-3.076,36.636-9.393,24.209-11.238,34.354-34.582,41.759-51.62,4.81-11.067,8.283-19.057,14.687-22.03,10.674-4.958,32.358-5.674,44.005-6.062,2.481-.083,4.344-0.134,5.257-0.224a12.192,12.192,0,0,0,9.835-11.341c0.561-6.2-1.888-7.479-7.039-9.559l-0.8-.325c-2.714-1.111-5.543-1.967-8.277-2.788-7.825-2.362-15.917-4.806-19.8-13.178-4.74-10.224,3.929-20.034,9.8-24.218l0.825-.5,140.928-71.817,23.4,3.618L451.3,151.675l12.323,2.341,2.177-10.95-8.3-4.69-70.247,12.775-23.143,19.394-137.7,63.483-1.782-.192c-5-.515-21.47-3.074-23.434-14.07-1.235-6.9,3.425-12.33,7.536-17.129,2.031-2.361,4.557-5.309,4.92-7.057,0.766-3.669.53-7.914-7.019-11.627a14.931,14.931,0,0,0-6.515-1.8c-1.656,0-4.271.383-7.837,3.7a92.473,92.473,0,0,0-6.956,8.206c-7.329,9.227-17.362,21.857-28.9,26.917-6.932,3.032-16.264.288-27.228-3.6C119.137,213.812,107.749,209.765,94.74,209.765Z"/>
</svg>
