<svg xmlns="http://www.w3.org/2000/svg" width="500" height="500" viewBox="0 0 500 500">
  <defs>
    <style>
      .cls-1 {
        fill: #46bfa7;
      }

      .cls-2 {
        fill: #fff;
        fill-rule: evenodd;
      }
    </style>
  </defs>
  <circle class="cls-1" cx="249" cy="253" r="247"/>
  <path class="cls-2" d="M74,223s73.715,11.023,118-20,149.258-61.43,173-22,51,122,51,122-82.848-6.7-120,22-123.484,45.762-174,29L75,226"/>
  <circle id="Ellipse_2_copy" data-name="Ellipse 2 copy" class="cls-1" cx="246" cy="260" r="58"/>
  <path id="_" data-name="$" class="cls-2" d="M261.19,279.488q-1.944,3.6-7.113,5.617a12.283,12.283,0,0,1-8.639.347q-4.15-1.4-6.56-7.577l-7.614,2.972,0,0.232q3.093,8.4,9.183,10.986a19.713,19.713,0,0,0,13.265.618l2.987,7.655,6.292-2.456-3-7.695q6.916-3.577,9.456-9.256t-0.15-12.571q-2.643-6.772-8.152-9.172t-14.716-1.853q-7.177.308-10.559-1.143a9.053,9.053,0,0,1-4.9-5.338,10.029,10.029,0,0,1-.271-7.675q1.4-3.389,6.131-5.234a9.047,9.047,0,0,1,8.209.445,13.785,13.785,0,0,1,5.747,7.27l7.855-3.066q-3.018-7.734-8.525-10.9a16.436,16.436,0,0,0-12.542-1.432l-3.473-8.9-6.332,2.472,3.457,8.857q-6.324,3.438-8.5,9.092t0.4,12.266q2.66,6.813,8.383,9.289t14.772,1.762q6.674-.3,10.212,1.256a9,9,0,0,1,4.945,5.158A9.1,9.1,0,0,1,261.19,279.488Z"/>
</svg>
