<svg xmlns="http://www.w3.org/2000/svg" width="500" height="500" viewBox="0 0 500 500">
  <defs>
    <style>
      .cls-1 {
        fill: #534d93;
        fill-rule: evenodd;
      }
    </style>
  </defs>
  <path id="Ellipse_10_copy_2" data-name="Ellipse 10 copy 2" class="cls-1" d="M75.027,193c37.57,0,68.028,29.773,68.028,66.5S112.6,326,75.027,326,7,296.227,7,259.5,37.456,193,75.027,193Zm178.3,0c37.482,0,67.868,29.773,67.868,66.5S290.805,326,253.323,326s-67.87-29.773-67.87-66.5S215.839,193,253.323,193Zm171.649,0C462.543,193,493,222.773,493,259.5S462.543,326,424.972,326s-68.026-29.773-68.026-66.5S387.4,193,424.972,193Z"/>
</svg>
