<svg xmlns="http://www.w3.org/2000/svg" width="500" height="500" viewBox="0 0 500 500">
  <defs>
    <style>
      .cls-1 {
        fill: #534d93;
        fill-rule: evenodd;
      }
    </style>
  </defs>
  <path class="cls-1" d="M246,88A169,169,0,1,1,77,257,169,169,0,0,1,246,88Zm-2.5,81A87.5,87.5,0,1,1,156,256.5,87.5,87.5,0,0,1,243.5,169Z"/>
  <path class="cls-1" d="M192,21H299l13,101H181Z"/>
  <path id="Rectangle_4_copy" data-name="Rectangle 4 copy" class="cls-1" d="M419.509,95.576l53.5,92.665L392.04,250,326.54,136.55Z"/>
  <path id="Rectangle_4_copy_2" data-name="Rectangle 4 copy 2" class="cls-1" d="M73.32,96.014l-53.329,92.4L100.7,250l65.29-113.128Z"/>
  <path id="Rectangle_4_copy_3" data-name="Rectangle 4 copy 3" class="cls-1" d="M192,486H299l13-101H181Z"/>
  <path id="Rectangle_4_copy_3-2" data-name="Rectangle 4 copy 3" class="cls-1" d="M419.509,422.424l53.5-92.665L392.04,268,326.54,381.45Z"/>
  <path id="Rectangle_4_copy_3-3" data-name="Rectangle 4 copy 3" class="cls-1" d="M73.32,421.987l-53.329-92.4L100.7,268l65.29,113.128Z"/>
</svg>
