<svg xmlns="http://www.w3.org/2000/svg" width="451.062" height="451.062" viewBox="0 0 451.062 451.062">
  <defs>
    <style>
      .cls-1 {
        fill: #534d93;
        fill-rule: evenodd;
      }
    </style>
  </defs>
  <path class="cls-1" d="M253.5,475.021c-124.355,0-225.521-101.17-225.521-225.521S129.145,23.979,253.5,23.979,479.021,125.149,479.021,249.5,377.855,475.021,253.5,475.021Zm10.344-235.865h88.629a349.519,349.519,0,0,0-13.887-88.651H263.844v88.651Zm88.629,20.688H263.844v88.435h74.8A349.51,349.51,0,0,0,352.473,259.844Zm105.574,0H372.5a370.791,370.791,0,0,1-13.028,88.435h73.372A203.361,203.361,0,0,0,458.047,259.844ZM420.232,368.285H353.321a324.632,324.632,0,0,1-37.55,76.341A205.654,205.654,0,0,0,420.232,368.285ZM285.76,451.772a297.218,297.218,0,0,0,46.3-83.487H263.844v85.754A206.834,206.834,0,0,0,285.76,451.772Zm-42.6,2.281V368.285H170a297.652,297.652,0,0,0,45.5,82.458A207.02,207.02,0,0,0,243.157,454.053Zm-58.325-11.6a325.23,325.23,0,0,1-36.13-74.172H86.786A205.786,205.786,0,0,0,184.832,442.457ZM74.148,348.279h68.438a370.8,370.8,0,0,1-13.04-88.435H48.955A203.367,203.367,0,0,0,74.148,348.279ZM48.955,239.156h80.591a370.8,370.8,0,0,1,13.1-88.651H74.272A203.36,203.36,0,0,0,48.955,239.156ZM86.942,130.5h61.831a325.2,325.2,0,0,1,36.042-73.95A205.782,205.782,0,0,0,86.942,130.5ZM243.157,44.948a206.941,206.941,0,0,0-27.67,3.311,297.658,297.658,0,0,0-45.41,82.241h73.08V44.948Zm0,105.557h-79.7a349.372,349.372,0,0,0-13.886,88.651h93.582V150.505ZM149.575,259.844A349.406,349.406,0,0,0,163.4,348.279h79.757V259.844H149.575ZM263.844,44.962V130.5h68.138A297.232,297.232,0,0,0,285.77,47.231,206.786,206.786,0,0,0,263.844,44.962Zm51.933,9.415a324.748,324.748,0,0,1,37.47,76.123h66.836A205.665,205.665,0,0,0,315.777,54.377Zm116.95,96.128h-73.32A370.737,370.737,0,0,1,372.5,239.156h85.547A203.355,203.355,0,0,0,432.727,150.505Z" transform="translate(-27.969 -23.969)"/>
</svg>
